<?xml version='1.0' encoding='utf-8'?>
<mxfile host="app.diagrams.net"><diagram name="ER Diagram"><mxGraphModel><root><mxCell id="0" /><mxCell id="1" parent="0" /><mxCell id="2" value="User&lt;br/&gt;user_id (PK)&lt;br/&gt;first_name&lt;br/&gt;last_name&lt;br/&gt;email&lt;br/&gt;phone&lt;br/&gt;password_hash&lt;br/&gt;created_at" style="shape=swimlane;fillColor=#dae8fc;rounded=1;" vertex="1" parent="1" x="20" y="20" width="200" height="180" /><mxGeometry x="20" y="20" width="200" height="180" as_="geometry" /><mxCell id="3" value="Property&lt;br/&gt;property_id (PK)&lt;br/&gt;host_id (FK)&lt;br/&gt;title&lt;br/&gt;description&lt;br/&gt;address&lt;br/&gt;city&lt;br/&gt;state&lt;br/&gt;country&lt;br/&gt;price_per_night&lt;br/&gt;created_at" style="shape=swimlane;fillColor=#dae8fc;rounded=1;" vertex="1" parent="1" x="300" y="20" width="200" height="180" /><mxGeometry x="300" y="20" width="200" height="180" as_="geometry" /><mxCell id="4" value="Booking&lt;br/&gt;booking_id (PK)&lt;br/&gt;property_id (FK)&lt;br/&gt;guest_id (FK)&lt;br/&gt;start_date&lt;br/&gt;end_date&lt;br/&gt;total_price&lt;br/&gt;created_at" style="shape=swimlane;fillColor=#dae8fc;rounded=1;" vertex="1" parent="1" x="160" y="300" width="200" height="180" /><mxGeometry x="160" y="300" width="200" height="180" as_="geometry" /><mxCell id="5" value="Payment&lt;br/&gt;payment_id (PK)&lt;br/&gt;booking_id (FK)&lt;br/&gt;payment_date&lt;br/&gt;amount&lt;br/&gt;payment_method&lt;br/&gt;status" style="shape=swimlane;fillColor=#dae8fc;rounded=1;" vertex="1" parent="1" x="460" y="300" width="200" height="180" /><mxGeometry x="460" y="300" width="200" height="180" as_="geometry" /><mxCell id="6" value="Review&lt;br/&gt;review_id (PK)&lt;br/&gt;property_id (FK)&lt;br/&gt;guest_id (FK)&lt;br/&gt;rating&lt;br/&gt;comment&lt;br/&gt;created_at" style="shape=swimlane;fillColor=#dae8fc;rounded=1;" vertex="1" parent="1" x="300" y="520" width="200" height="180" /><mxGeometry x="300" y="520" width="200" height="180" as_="geometry" /><mxCell id="7" value="hosts" style="endArrow=block;dashed=0;" edge="1" parent="1" source="2" target="3" /><mxGeometry relative="1" as_="geometry" /><mxCell id="8" value="books" style="endArrow=block;dashed=0;" edge="1" parent="1" source="2" target="4" /><mxGeometry relative="1" as_="geometry" /><mxCell id="9" value="is_booked_in" style="endArrow=block;dashed=0;" edge="1" parent="1" source="3" target="4" /><mxGeometry relative="1" as_="geometry" /><mxCell id="10" value="has_payment" style="endArrow=block;dashed=0;" edge="1" parent="1" source="4" target="5" /><mxGeometry relative="1" as_="geometry" /><mxCell id="11" value="writes" style="endArrow=block;dashed=0;" edge="1" parent="1" source="2" target="6" /><mxGeometry relative="1" as_="geometry" /><mxCell id="12" value="has_review" style="endArrow=block;dashed=0;" edge="1" parent="1" source="3" target="6" /><mxGeometry relative="1" as_="geometry" /></root></mxGraphModel></diagram></mxfile>